<mxfile host="app.diagrams.net" modified="2020-12-23T13:03:24.774Z" agent="5.0 (Windows NT 10.0; Win64; x64) AppleWebKit/537.36 (KHTML, like Gecko) Chrome/83.0.4103.106 Safari/537.36" etag="ePoq46joI_hF_zbp7w94" version="14.1.1" type="github">
  <diagram name="Page-1" id="ad52d381-51e7-2e0d-a935-2d0ddd2fd229">
    <mxGraphModel dx="2522" dy="735" grid="1" gridSize="10" guides="1" tooltips="1" connect="1" arrows="1" fold="1" page="1" pageScale="1" pageWidth="1100" pageHeight="850" background="#ffffff" math="0" shadow="0">
      <root>
        <mxCell id="0" />
        <mxCell id="1" parent="0" />
        <mxCell id="pAwFFn-Q9lakDj62FER6-1" value="平台注册用户&lt;br&gt;项目负责人权限" style="shape=umlActor;verticalLabelPosition=bottom;verticalAlign=top;html=1;" parent="1" vertex="1">
          <mxGeometry x="30" y="120" width="30" height="60" as="geometry" />
        </mxCell>
        <mxCell id="pAwFFn-Q9lakDj62FER6-6" value="平台注册用户&lt;br&gt;医院用户" style="shape=umlActor;verticalLabelPosition=bottom;verticalAlign=top;html=1;" parent="1" vertex="1">
          <mxGeometry x="300" y="100" width="30" height="60" as="geometry" />
        </mxCell>
        <mxCell id="7wvNYwcTOtEe8FW4VnQ9-1" value="" style="endArrow=classic;startArrow=classic;html=1;shadow=0;exitX=0.187;exitY=-0.029;exitDx=0;exitDy=0;exitPerimeter=0;" parent="1" edge="1">
          <mxGeometry width="50" height="50" relative="1" as="geometry">
            <mxPoint x="178.6199999999999" y="325.5920000000001" as="sourcePoint" />
            <mxPoint x="70" y="210" as="targetPoint" />
          </mxGeometry>
        </mxCell>
        <mxCell id="7wvNYwcTOtEe8FW4VnQ9-2" value="医院信息维护&lt;br&gt;上传院内基础数据&lt;br&gt;分配匹配任务&lt;br&gt;下载匹配后用户数据" style="edgeLabel;html=1;align=center;verticalAlign=middle;resizable=0;points=[];" parent="7wvNYwcTOtEe8FW4VnQ9-1" vertex="1" connectable="0">
          <mxGeometry x="0.0248" y="-2" relative="1" as="geometry">
            <mxPoint x="-34.05" y="-23.41" as="offset" />
          </mxGeometry>
        </mxCell>
        <mxCell id="7wvNYwcTOtEe8FW4VnQ9-6" value="平台注册用户&lt;br&gt;公司内部药师" style="shape=umlActor;verticalLabelPosition=bottom;verticalAlign=top;html=1;" parent="1" vertex="1">
          <mxGeometry x="450" y="100" width="30" height="60" as="geometry" />
        </mxCell>
        <mxCell id="7wvNYwcTOtEe8FW4VnQ9-9" value="" style="endArrow=classic;html=1;shadow=0;entryX=0.827;entryY=-0.015;entryDx=0;entryDy=0;entryPerimeter=0;" parent="1" edge="1">
          <mxGeometry width="50" height="50" relative="1" as="geometry">
            <mxPoint x="465" y="190" as="sourcePoint" />
            <mxPoint x="345.02" y="327.72" as="targetPoint" />
            <Array as="points" />
          </mxGeometry>
        </mxCell>
        <mxCell id="7wvNYwcTOtEe8FW4VnQ9-10" value="药品匹配&lt;br&gt;审核众包用户匹配准确度、&lt;br&gt;审核众包用户规则维护的准确度" style="edgeLabel;html=1;align=center;verticalAlign=middle;resizable=0;points=[];" parent="7wvNYwcTOtEe8FW4VnQ9-9" vertex="1" connectable="0">
          <mxGeometry x="-0.0204" y="-1" relative="1" as="geometry">
            <mxPoint x="27.23" y="-25.83" as="offset" />
          </mxGeometry>
        </mxCell>
        <mxCell id="9kh3wDhLQs7-ypC-ve2--15" value="" style="endArrow=classic;startArrow=classic;html=1;" parent="1" edge="1">
          <mxGeometry width="50" height="50" relative="1" as="geometry">
            <mxPoint x="284.62962962962956" y="330" as="sourcePoint" />
            <mxPoint x="330" y="190" as="targetPoint" />
          </mxGeometry>
        </mxCell>
        <mxCell id="9kh3wDhLQs7-ypC-ve2--16" value="提交当前未匹配数据&lt;br&gt;下载当前医院匹配数据" style="edgeLabel;html=1;align=center;verticalAlign=middle;resizable=0;points=[];" parent="9kh3wDhLQs7-ypC-ve2--15" vertex="1" connectable="0">
          <mxGeometry x="-0.0149" y="1" relative="1" as="geometry">
            <mxPoint as="offset" />
          </mxGeometry>
        </mxCell>
        <mxCell id="9kh3wDhLQs7-ypC-ve2--22" value="" style="group" parent="1" vertex="1" connectable="0">
          <mxGeometry x="710" y="110" width="40" height="80" as="geometry" />
        </mxCell>
        <mxCell id="7wvNYwcTOtEe8FW4VnQ9-11" value="平台注册用户&lt;br&gt;外部众包用户" style="shape=umlActor;verticalLabelPosition=bottom;verticalAlign=top;html=1;" parent="9kh3wDhLQs7-ypC-ve2--22" vertex="1">
          <mxGeometry x="10" width="30" height="60" as="geometry" />
        </mxCell>
        <mxCell id="9kh3wDhLQs7-ypC-ve2--13" value="" style="endArrow=classic;html=1;entryX=0.992;entryY=0.125;entryDx=0;entryDy=0;entryPerimeter=0;" parent="9kh3wDhLQs7-ypC-ve2--22" edge="1">
          <mxGeometry width="50" height="50" relative="1" as="geometry">
            <mxPoint y="80" as="sourcePoint" />
            <mxPoint x="-322.0799999999999" y="239" as="targetPoint" />
          </mxGeometry>
        </mxCell>
        <mxCell id="9kh3wDhLQs7-ypC-ve2--14" value="&amp;nbsp;匹配药品" style="edgeLabel;html=1;align=center;verticalAlign=middle;resizable=0;points=[];" parent="9kh3wDhLQs7-ypC-ve2--13" vertex="1" connectable="0">
          <mxGeometry x="0.0341" y="3" relative="1" as="geometry">
            <mxPoint y="1" as="offset" />
          </mxGeometry>
        </mxCell>
        <mxCell id="9kh3wDhLQs7-ypC-ve2--18" value="" style="endArrow=classic;html=1;entryX=0.978;entryY=0.09;entryDx=0;entryDy=0;entryPerimeter=0;" parent="9kh3wDhLQs7-ypC-ve2--22" edge="1">
          <mxGeometry width="50" height="50" relative="1" as="geometry">
            <mxPoint x="40" y="80" as="sourcePoint" />
            <mxPoint x="-215.7199999999998" y="514.4000000000001" as="targetPoint" />
          </mxGeometry>
        </mxCell>
        <mxCell id="9kh3wDhLQs7-ypC-ve2--19" value="&lt;span style=&quot;font-size: 12px&quot;&gt;维护药品规则&lt;/span&gt;" style="edgeLabel;html=1;align=center;verticalAlign=middle;resizable=0;points=[];" parent="9kh3wDhLQs7-ypC-ve2--18" vertex="1" connectable="0">
          <mxGeometry x="0.0239" y="-1" relative="1" as="geometry">
            <mxPoint as="offset" />
          </mxGeometry>
        </mxCell>
        <mxCell id="9kh3wDhLQs7-ypC-ve2--34" value="平台注册用户&lt;br&gt;内容管理员" style="shape=umlActor;verticalLabelPosition=bottom;verticalAlign=top;html=1;" parent="1" vertex="1">
          <mxGeometry x="960" y="160" width="30" height="60" as="geometry" />
        </mxCell>
        <mxCell id="9kh3wDhLQs7-ypC-ve2--35" value="" style="endArrow=classic;html=1;" parent="1" edge="1">
          <mxGeometry width="50" height="50" relative="1" as="geometry">
            <mxPoint x="970" y="250" as="sourcePoint" />
            <mxPoint x="827.1428571428573" y="450" as="targetPoint" />
          </mxGeometry>
        </mxCell>
        <mxCell id="9kh3wDhLQs7-ypC-ve2--36" value="内容维护" style="edgeLabel;html=1;align=center;verticalAlign=middle;resizable=0;points=[];" parent="9kh3wDhLQs7-ypC-ve2--35" vertex="1" connectable="0">
          <mxGeometry x="-0.5488" y="2" relative="1" as="geometry">
            <mxPoint x="-1" as="offset" />
          </mxGeometry>
        </mxCell>
        <mxCell id="9kh3wDhLQs7-ypC-ve2--39" value="" style="endArrow=classic;html=1;" parent="1" edge="1">
          <mxGeometry width="50" height="50" relative="1" as="geometry">
            <mxPoint x="900" y="475" as="sourcePoint" />
            <mxPoint x="980" y="444.55555555555566" as="targetPoint" />
          </mxGeometry>
        </mxCell>
        <mxCell id="9kh3wDhLQs7-ypC-ve2--47" value="平台注册用户&lt;br&gt;授权管理员" style="shape=umlActor;verticalLabelPosition=bottom;verticalAlign=top;html=1;" parent="1" vertex="1">
          <mxGeometry x="-30" y="280" width="30" height="60" as="geometry" />
        </mxCell>
        <mxCell id="9kh3wDhLQs7-ypC-ve2--49" value="" style="endArrow=classic;html=1;entryX=-0.009;entryY=0.38;entryDx=0;entryDy=0;entryPerimeter=0;" parent="1" edge="1">
          <mxGeometry width="50" height="50" relative="1" as="geometry">
            <mxPoint y="320" as="sourcePoint" />
            <mxPoint x="127.65999999999985" y="387.76" as="targetPoint" />
          </mxGeometry>
        </mxCell>
        <mxCell id="9kh3wDhLQs7-ypC-ve2--50" value="授权医院使用时限(有效期)" style="edgeLabel;html=1;align=center;verticalAlign=middle;resizable=0;points=[];" parent="9kh3wDhLQs7-ypC-ve2--49" vertex="1" connectable="0">
          <mxGeometry x="-0.1075" relative="1" as="geometry">
            <mxPoint as="offset" />
          </mxGeometry>
        </mxCell>
        <mxCell id="i3Eq64v3K8bZMm2mKdOP-4" value="&lt;font color=&quot;#ffffff&quot; style=&quot;font-size: 20px&quot;&gt;[RESTful Api]&lt;br style=&quot;font-size: 20px&quot;&gt;医院维护&lt;br&gt;&lt;/font&gt;" style="html=1;dropTarget=0;fillColor=#3399FF;strokeColor=none;fontSize=20;" vertex="1" parent="1">
          <mxGeometry x="-45" y="530" width="195" height="100" as="geometry" />
        </mxCell>
        <mxCell id="i3Eq64v3K8bZMm2mKdOP-5" value="" style="shape=module;jettyWidth=8;jettyHeight=4;fillColor=#3399FF;strokeColor=#FFFFFF;" vertex="1" parent="i3Eq64v3K8bZMm2mKdOP-4">
          <mxGeometry x="1" width="20" height="20" relative="1" as="geometry">
            <mxPoint x="-27" y="7" as="offset" />
          </mxGeometry>
        </mxCell>
        <mxCell id="i3Eq64v3K8bZMm2mKdOP-8" value="&lt;font color=&quot;#ffffff&quot; style=&quot;font-size: 20px&quot;&gt;[RESTful Api]&lt;br style=&quot;font-size: 20px&quot;&gt;数据上传下载&lt;br&gt;&lt;/font&gt;" style="html=1;dropTarget=0;fillColor=#3399FF;strokeColor=none;fontSize=20;" vertex="1" parent="1">
          <mxGeometry x="200" y="530" width="190" height="100" as="geometry" />
        </mxCell>
        <mxCell id="i3Eq64v3K8bZMm2mKdOP-9" value="" style="shape=module;jettyWidth=8;jettyHeight=4;fillColor=#3399FF;strokeColor=#FFFFFF;" vertex="1" parent="i3Eq64v3K8bZMm2mKdOP-8">
          <mxGeometry x="1" width="20" height="20" relative="1" as="geometry">
            <mxPoint x="-27" y="7" as="offset" />
          </mxGeometry>
        </mxCell>
        <mxCell id="i3Eq64v3K8bZMm2mKdOP-11" value="&lt;font color=&quot;#ffffff&quot; style=&quot;font-size: 20px&quot;&gt;[RESTful Api]&lt;br style=&quot;font-size: 20px&quot;&gt;任务管理&lt;br&gt;&lt;/font&gt;" style="html=1;dropTarget=0;fillColor=#3399FF;strokeColor=none;fontSize=20;" vertex="1" parent="1">
          <mxGeometry x="-45" y="660" width="190" height="100" as="geometry" />
        </mxCell>
        <mxCell id="i3Eq64v3K8bZMm2mKdOP-12" value="" style="shape=module;jettyWidth=8;jettyHeight=4;fillColor=#3399FF;strokeColor=#FFFFFF;" vertex="1" parent="i3Eq64v3K8bZMm2mKdOP-11">
          <mxGeometry x="1" width="20" height="20" relative="1" as="geometry">
            <mxPoint x="-27" y="7" as="offset" />
          </mxGeometry>
        </mxCell>
        <mxCell id="i3Eq64v3K8bZMm2mKdOP-13" value="&lt;font color=&quot;#ffffff&quot; style=&quot;font-size: 20px&quot;&gt;[RESTful Api]&lt;br style=&quot;font-size: 20px&quot;&gt;任务管理&lt;br&gt;&lt;/font&gt;" style="html=1;dropTarget=0;fillColor=#3399FF;strokeColor=none;fontSize=20;" vertex="1" parent="1">
          <mxGeometry x="210" y="660" width="190" height="100" as="geometry" />
        </mxCell>
        <mxCell id="i3Eq64v3K8bZMm2mKdOP-14" value="" style="shape=module;jettyWidth=8;jettyHeight=4;fillColor=#3399FF;strokeColor=#FFFFFF;" vertex="1" parent="i3Eq64v3K8bZMm2mKdOP-13">
          <mxGeometry x="1" width="20" height="20" relative="1" as="geometry">
            <mxPoint x="-27" y="7" as="offset" />
          </mxGeometry>
        </mxCell>
      </root>
    </mxGraphModel>
  </diagram>
</mxfile>
